<svg viewBox="0 0 1024 1024" xmlns="http://www.w3.org/2000/svg"><path d="m99.012 149.446c-118.359 117.436-118.359 307.899-.001 425.334l104.879 104.193c8.024 7.972 20.991 7.929 28.963-.095s7.929-20.991-.095-28.963l-104.888-104.202c-102.22-101.423-102.22-265.776-.009-367.19 102.31-101.502 268.242-101.502 370.552.001 7.985 7.922 20.864 7.922 28.849-.001 102.3-101.502 268.241-101.502 370.541 0 102.221 101.414 102.221 265.767.001 367.18l-49.043 48.745c-8.022 7.974-8.062 20.941-.088 28.963s20.941 8.062 28.963.088l49.029-48.732c118.356-117.422 118.356-307.886-.013-425.322-113.574-112.688-294.864-117.162-413.815-13.421-118.959-103.741-300.24-99.267-413.824 13.421z"/><path d="m572.466 263.522 276.214 276.214c15.104 15.104 15.104 39.607-.003 54.721-15.11 15.11-39.608 15.11-54.712 0l-101.144-101.144c-7.998-7.998-20.965-7.998-28.963 0s-7.998 20.965 0 28.963l101.14 101.14c31.096 31.11 81.534 31.11 112.644 0 31.099-31.113 31.099-81.546 0-112.644l-276.214-276.214c-7.998-7.998-20.965-7.998-28.963 0s-7.998 20.965 0 28.963z"/><path d="m547.175 404.886 217.661 217.661c15.113 15.113 15.113 39.612.003 54.715-15.117 15.117-39.608 15.117-54.721.003l-101.13-101.13c-7.998-7.998-20.965-7.998-28.963 0s-7.998 20.965 0 28.963l101.13 101.13c31.11 31.11 81.535 31.11 112.644 0 31.11-31.096 31.11-81.534 0-112.644l-217.661-217.661c-7.998-7.998-20.965-7.998-28.963 0s-7.998 20.965 0 28.963z"/><path d="m464.975 490.364 216.023 216.023c15.113 15.113 15.113 39.612.003 54.715-15.117 15.117-39.608 15.117-54.721.003l-254.607-254.607c-7.998-7.998-20.965-7.998-28.963 0s-7.998 20.965 0 28.963l254.607 254.607c31.11 31.11 81.535 31.11 112.644 0 31.11-31.096 31.11-81.534 0-112.644l-216.023-216.023c-7.998-7.998-20.965-7.998-28.963 0s-7.998 20.965 0 28.963zm104.582-256.875-162.714 161.69c-4.836 4.836-11.89 6.6-18.381 4.628l-47.119-14.352c-7.402-2.251-9.731-11.566-4.261-17.039l195.641-195.641c7.998-7.998 7.998-20.965 0-28.963s-20.965-7.998-28.963 0l-195.645 195.645c-27.327 27.344-15.68 73.937 21.302 85.183l47.126 14.354c20.97 6.369 43.734.676 59.217-14.807l162.668-161.644c8.023-7.973 8.064-20.94.091-28.963s-20.94-8.064-28.963-.091z"/><path d="m344.386 590.34c14.346-14.346 14.346-37.608 0-51.953l-2.765-2.765c-14.346-14.346-37.608-14.346-51.953 0l-59.32 59.32c-14.346 14.346-14.346 37.608 0 51.953l2.765 2.765c14.346 14.346 37.608 14.346 51.953 0zm28.964 28.963-59.32 59.32c-30.342 30.342-79.538 30.342-109.88 0l-2.765-2.765c-30.342-30.342-30.342-79.538 0-109.88l59.32-59.32c30.342-30.342 79.538-30.342 109.88 0l2.765 2.765c30.342 30.342 30.342 79.538 0 109.88z"/><path d="m428.412 622.412-2.765-2.765c-14.346-14.346-37.608-14.346-51.953 0l-59.32 59.32c-14.346 14.346-14.346 37.608 0 51.953l2.765 2.765c14.346 14.346 37.608 14.346 51.953 0l59.32-59.32c14.346-14.346 14.346-37.608 0-51.953zm-30.357 140.237c-30.342 30.342-79.538 30.342-109.88 0l-2.765-2.765c-30.342-30.342-30.342-79.538 0-109.88l59.32-59.32c30.342-30.342 79.538-30.342 109.88 0l2.765 2.765c30.342 30.342 30.342 79.538 0 109.88z"/><path d="m512.436 758.39c14.346-14.346 14.346-37.608 0-51.953l-2.765-2.765c-14.346-14.346-37.608-14.346-51.953 0l-59.32 59.32c-14.346 14.346-14.346 37.608 0 51.953l2.765 2.765c14.346 14.346 37.608 14.346 51.953 0zm28.963 28.963-59.32 59.32c-30.342 30.342-79.538 30.342-109.88 0l-2.765-2.765c-30.342-30.342-30.342-79.538 0-109.88l59.32-59.32c30.342-30.342 79.538-30.342 109.88 0l2.765 2.765c30.342 30.342 30.342 79.538 0 109.88z"/><path d="m596.46 790.462-2.765-2.765c-14.346-14.346-37.608-14.346-51.953 0l-59.32 59.32c-14.346 14.346-14.346 37.608 0 51.953l2.765 2.765c14.346 14.346 37.608 14.346 51.953 0l59.32-59.32c14.346-14.346 14.346-37.608 0-51.953zm-30.357 140.236c-30.342 30.342-79.538 30.342-109.88 0l-2.765-2.765c-30.342-30.342-30.342-79.538 0-109.88l59.32-59.32c30.342-30.342 79.538-30.342 109.88 0l2.765 2.765c30.342 30.342 30.342 79.538 0 109.88z"/></svg>